<svg id="7945bdd2-ae78-4a22-b580-3aff4c1ee788" data-name="Layer 1" xmlns="http://www.w3.org/2000/svg" viewBox="0 0 321.33 95.47"><defs><style>.b3b80541-8721-4766-b84c-4b89a2df7f85{fill:#555;}.\37 1ecb01a-0bef-4779-8a5a-9c7163d457c4{fill:#131313;}.aa65f94b-7bca-4a7b-b0c3-3bacacc3e890{fill:#6e6e6e;}.\37 4bf8ebe-49e9-4deb-a36c-ea7fb8671e9c{fill:#2e9ddb;}.\32 ae3b7d6-c429-4768-b1d0-713504afe874{fill:#268dc6;}.\30 dfd1c50-79df-4857-9821-9c1123497357{fill:#2ea6e8;}.d910700c-aeda-4e98-a996-54ebde2ad6bd{fill:#3ba7e2;}.\32 f368744-2ec6-4953-975e-ebded503298f{fill:#3f9dd1;}.f899efcb-f504-434e-aa1c-d18147a8781e{fill:#29a9ff;}.\39 2c1c835-5bba-4f7a-9fb9-af96e31d4b5d{fill:#36aff2;}.\39 6d01f30-5d33-4bbb-8482-40d736a3dee3{fill:#389ed6;}.\34 19f8ef9-1896-4d35-b851-fe7350b8db9b{fill:#f6f6f6;}</style></defs><title>gem-logo</title><path class="b3b80541-8721-4766-b84c-4b89a2df7f85" d="M800.88,535.84c-2.28,0-4.56,0-6.84,0-.9,0-1.11-.21-1.1-1.11,0-11.24,0-22.48,0-33.72a19.15,19.15,0,0,0-1.27-7.15c-3-7.67-10.4-10.93-18.22-8.08-6.32,2.3-9.79,7.25-9.79,14q0,17.46,0,34.92c0,1-.25,1.19-1.17,1.16-1.8-.08-3.6-.1-5.4,0-1.11.06-1.45-.18-1.45-1.38.06-11.64-.1-23.28.07-34.92.15-10.32-10.52-16.76-19.27-14.15-5.28,1.58-7.92,5.64-9.26,10.7a20.14,20.14,0,0,0-.52,5.24c0,11.08,0,22.16,0,33.24,0,1.1-.3,1.32-1.31,1.27-1.92-.08-3.84,0-5.76,0-.63,0-.9-.09-.9-.82,0-11.64-.13-23.28.1-34.92.17-8.55,3.61-15.67,11.45-19.7s16-4.37,23.6,1.25a24.6,24.6,0,0,1,5.74,6.49c.7-.95,1.33-1.85,2-2.71,6.16-7.7,14.6-9.65,23.94-6.57,8.87,2.92,13.61,9.47,15,18.58,0,.24-.13.59.26.71v.72a.31.31,0,0,0,0,.48v.72a1.84,1.84,0,0,0,0,1.44Z" transform="translate(-479.55 -464.52)"/><path class="71ecb01a-0bef-4779-8a5a-9c7163d457c4" d="M800.88,501.52a1.08,1.08,0,0,1,0-1.44Z" transform="translate(-479.55 -464.52)"/><path class="aa65f94b-7bca-4a7b-b0c3-3bacacc3e890" d="M800.88,499.36c-.27-.16-.34-.32,0-.48Z" transform="translate(-479.55 -464.52)"/><path class="74bf8ebe-49e9-4deb-a36c-ea7fb8671e9c" d="M572.44,557.72,510,525.07l30.18-29.94,32.54,62.31Z" transform="translate(-479.55 -464.52)"/><path class="2ae3b7d6-c429-4768-b1d0-713504afe874" d="M564.68,559.88l-25-2.22-57-5.11a1,1,0,0,1-.23-.09c0-.41.39-.57.62-.8q11.19-11.21,22.38-22.41c.55-.55.92-.75,1.69-.34q29.17,15.32,58.38,30.58a.46.46,0,0,1,.09.08C565.53,560.26,565.05,559.89,564.68,559.88Z" transform="translate(-479.55 -464.52)"/><path class="0dfd1c50-79df-4857-9821-9c1123497357" d="M574.55,550.73l-18.44-35.25q-6.09-11.65-12.19-23.29c-.29-.56-.47-.93.12-1.52q11.51-11.39,23-22.84c.11-.11.23-.2.48-.41.3,3.28.59,6.44.87,9.6q2.2,24.47,4.4,48.94,1.05,11.76,2.09,23.52C574.85,549.93,575.22,550.45,574.55,550.73Z" transform="translate(-479.55 -464.52)"/><path class="d910700c-aeda-4e98-a996-54ebde2ad6bd" d="M507.61,519.75c-1.16-9.92-2.32-19.85-3.52-29.77-.12-1,.27-.92,1-.84q14.94,1.77,29.89,3.51c.1.51-.35.68-.6.94q-12.79,12.81-25.6,25.59C508.46,519.48,508.25,520.11,507.61,519.75Z" transform="translate(-479.55 -464.52)"/><path class="2f368744-2ec6-4953-975e-ebded503298f" d="M501.78,526.06l-22.23,22.23V514.52Z" transform="translate(-479.55 -464.52)"/><path class="f899efcb-f504-434e-aa1c-d18147a8781e" d="M540.94,486.62l-11.47-22.1h33.6Z" transform="translate(-479.55 -464.52)"/><path class="92c1c835-5bba-4f7a-9fb9-af96e31d4b5d" d="M535.17,487.87l-28.4-3.31c-.07-.48.29-.6.49-.8q8.42-8.44,16.84-16.88c.65-.66.87-.71,1.33.19,3.54,6.86,7.15,13.69,10.73,20.52C536,488.25,535.54,487.9,535.17,487.87Z" transform="translate(-479.55 -464.52)"/><path class="96d01f30-5d33-4bbb-8482-40d736a3dee3" d="M503,521.36l-6.35-3.31-14.75-7.68c-.49-.26-.93-.38-.27-1Q490.36,500.68,499,492a4.71,4.71,0,0,1,.48-.35Z" transform="translate(-479.55 -464.52)"/><path class="b3b80541-8721-4766-b84c-4b89a2df7f85" d="M738.24,546.36c0-.56,0-1.12,0-1.68a2.58,2.58,0,0,1,4.15-2.07.72.72,0,0,0,1,0,2.52,2.52,0,0,1,4.05,1.78c.15,1.26,0,2.55.06,3.83,0,.53-.3.54-.7.55s-.46-.32-.46-.63c0-1,0-2.08,0-3.11s-.61-1.89-1.43-1.86-1.43.79-1.45,1.86,0,2,0,3c0,.41.05.77-.58.77s-.63-.28-.63-.73q0-1.56,0-3.11c0-1-.69-1.84-1.53-1.76a1.49,1.49,0,0,0-1.37,1.66q0,1.62,0,3.23c0,.51-.15.71-.68.7s-.47-.4-.48-.74C738.23,547.48,738.24,546.92,738.24,546.36Z" transform="translate(-479.55 -464.52)"/><path class="b3b80541-8721-4766-b84c-4b89a2df7f85" d="M699.35,542.43c.91-.35,1.35,0,1.63.82.4,1.15.9,2.27,1.44,3.61.58-1.34,1.11-2.49,1.56-3.66.29-.76.69-1.13,1.6-.76-1.12,2.66-2.25,5.32-3.36,8a.82.82,0,0,1-1.19.43c-.5-.21,0-.66.09-.88a3.11,3.11,0,0,0,0-3.13C700.43,545.42,699.93,543.91,699.35,542.43Z" transform="translate(-479.55 -464.52)"/><path class="b3b80541-8721-4766-b84c-4b89a2df7f85" d="M695.56,544c-.64.74-1.12.32-1.65-.18a2.12,2.12,0,0,0-3.34.18,2.31,2.31,0,0,0,.21,3.32,2.23,2.23,0,0,0,3.22-.11c.53-.48,1-.76,1.57-.09a3.71,3.71,0,0,1-6.13.47,3.54,3.54,0,0,1,.61-4.74,3.66,3.66,0,0,1,4.88.29A9.81,9.81,0,0,1,695.56,544Z" transform="translate(-479.55 -464.52)"/><path class="b3b80541-8721-4766-b84c-4b89a2df7f85" d="M779.56,546.4c0,.6,0,1.2,0,1.79,0,.39-.12.57-.55.57s-.56-.17-.56-.57c0-1,0-1.91,0-2.87a2,2,0,0,0-1.84-2.24c-1,0-1.68.94-1.69,2.22,0,.92,0,1.83,0,2.75,0,.5-.13.71-.67.71s-.49-.39-.49-.73c0-1.08,0-2.15,0-3.23a2.9,2.9,0,0,1,5.79,0C779.58,545.37,779.56,545.88,779.56,546.4Z" transform="translate(-479.55 -464.52)"/><path class="b3b80541-8721-4766-b84c-4b89a2df7f85" d="M687.88,546.43c0,.48,0,1,0,1.44s.18.93-.58.9-.51-.58-.52-1c0-.84,0-1.67,0-2.51a2.06,2.06,0,0,0-1.75-2.21c-1,0-1.77.91-1.79,2.25,0,.92,0,1.83,0,2.75,0,.41-.07.67-.58.68s-.6-.21-.59-.64c0-1.16,0-2.32,0-3.47a2.9,2.9,0,0,1,5.77.09c0,.56,0,1.12,0,1.67Z" transform="translate(-479.55 -464.52)"/><path class="b3b80541-8721-4766-b84c-4b89a2df7f85" d="M763.39,549a2.1,2.1,0,0,1-2.14-1.21c-.13-.31-.41-.76,0-1s.88-.27,1.05.37a1,1,0,0,0,.55.6.85.85,0,0,0,1.15-.33.79.79,0,0,0-.21-1.24c-.46-.29-1-.4-1.52-.64a1.74,1.74,0,0,1-.92-2,1.68,1.68,0,0,1,1.62-1.49,1.73,1.73,0,0,1,2,1c.11.25.41.65,0,.83s-.78.34-1-.19-.43-.68-.9-.55a.7.7,0,0,0-.55.7c0,.54.39.74.82.88.26.09.53.18.79.28a1.92,1.92,0,0,1,1.26,2.3A2,2,0,0,1,763.39,549Z" transform="translate(-479.55 -464.52)"/><path class="b3b80541-8721-4766-b84c-4b89a2df7f85" d="M758.25,549a2,2,0,0,1-2.06-1.27c-.11-.29-.42-.73.05-.92.3-.12.82-.23,1,.35a.89.89,0,0,0,.17.31.87.87,0,0,0,1,.39,1,1,0,0,0,.68-.76.87.87,0,0,0-.53-1c-.42-.21-.9-.31-1.33-.51a1.74,1.74,0,0,1-1-2.1,1.69,1.69,0,0,1,1.68-1.43,1.7,1.7,0,0,1,1.93,1.07c.1.24.41.64-.06.8-.28.09-.73.27-.94-.17s-.45-.76-1-.57a.69.69,0,0,0-.49.74c0,.53.46.7.88.84.23.08.46.14.68.23a2,2,0,0,1,1.31,2.39A2.07,2.07,0,0,1,758.25,549Z" transform="translate(-479.55 -464.52)"/><path class="b3b80541-8721-4766-b84c-4b89a2df7f85" d="M714,543.92c0-1,0-2,0-3,0-.37-.13-.79.54-.78s.63.29.62.74c0,.74-.28,1.69,1.07,1.45.32-.06.35.22.36.48s-.19.52-.51.46c-1-.18-1,.41-.95,1.11s0,1.36,0,2,.13,1.45,1,1.63a.44.44,0,0,1,.42.57c0,.4-.32.37-.62.36a1.87,1.87,0,0,1-2-2c0-.08,0-.16,0-.24Q714,545.35,714,543.92Z" transform="translate(-479.55 -464.52)"/><path class="b3b80541-8721-4766-b84c-4b89a2df7f85" d="M795.49,545.48q0-1.07,0-2.15c0-.16,0-.32,0-.48,0-.31.14-.7.42-.51.79.51,1.65-.56,2.33.18a.51.51,0,0,1-.31.76,1.88,1.88,0,0,0-1.15,2.12c0,.87,0,1.75,0,2.62,0,.43,0,.74-.61.75s-.72-.27-.71-.79C795.51,547.15,795.5,546.32,795.49,545.48Z" transform="translate(-479.55 -464.52)"/><path class="b3b80541-8721-4766-b84c-4b89a2df7f85" d="M696,548.79a37.67,37.67,0,0,1,0-6.48c.72,0,1.45.32,2.16-.07a.35.35,0,0,1,.5.16c.09.26.14.7-.09.78-1.8.63-1.27,2.14-1.35,3.43a4,4,0,0,0,0,1C697.4,548.55,697,548.93,696,548.79Z" transform="translate(-479.55 -464.52)"/><path class="419f8ef9-1896-4d35-b851-fe7350b8db9b" d="M655,548.36a4,4,0,0,0,4.23-.24,2.24,2.24,0,0,1-1.59,2.05,1.93,1.93,0,0,1-2.3-.82,1.16,1.16,0,0,0-1.51-.5C654,548.3,654.66,548.76,655,548.36Z" transform="translate(-479.55 -464.52)"/><path class="419f8ef9-1896-4d35-b851-fe7350b8db9b" d="M781.91,548.36a4.12,4.12,0,0,0,4.22-.2,2.22,2.22,0,0,1-1.58,2,1.93,1.93,0,0,1-2.3-.82,1.16,1.16,0,0,0-1.51-.5C781,548.3,781.62,548.76,781.91,548.36Z" transform="translate(-479.55 -464.52)"/><path class="b3b80541-8721-4766-b84c-4b89a2df7f85" d="M644.93,506.57a27.7,27.7,0,0,0-8.3-20.27c-8.64-8.76-18.94-11.54-30.59-7.61-18.92,6.38-25.83,30.11-13.71,46.28a28.61,28.61,0,0,0,40.69,6,36.32,36.32,0,0,0,4.42-4.17c0,2.08,0,3.89,0,5.71a16.56,16.56,0,0,1-3.15,9.76c-5,6.82-11.78,10.25-20.23,9.11-8.28-1.11-14.4-5.54-17.63-13.49-.16-.39-.31-.58-.75-.58-2.24,0-4.47,0-6.77,0a7.93,7.93,0,0,0,.17.88,26.93,26.93,0,0,0,4.4,8.57c9,11.63,26.67,14.51,39.47,6.46,8-5,12.31-12,12-21.66C644.73,523.21,644.9,514.89,644.93,506.57ZM623,528.11c-15.14,5-27.3-6.34-28.79-17.53-1.42-10.64,4.26-20.8,13.84-24.6,10.59-4.2,22.18.71,27.24,11.53a21.2,21.2,0,0,1,2,9.41C637.44,517.86,629.71,525.88,623,528.11Z" transform="translate(-479.55 -464.52)"/><path class="b3b80541-8721-4766-b84c-4b89a2df7f85" d="M705.5,488.67C694.62,475.25,676,473.61,663.74,484c-11.95,10.18-14.57,27.17-5.91,39.83,8.93,13,25.16,17.18,38.65,9.85a29,29,0,0,0,13.93-16.57c-2.52,0-4.88,0-7.24,0a1.19,1.19,0,0,0-1.26.78c-4.07,8-10.6,11.82-19.54,11.74a21.94,21.94,0,0,1-21.6-18.29c-.18-1-.09-1.44,1.16-1.43q24.23.07,48.46,0c.28,0,.56,0,.84,0,.48,0,.58-.18.61-.63C712.26,501.67,710.42,494.74,705.5,488.67ZM703.41,503q-21.16,0-42.33,0a3,3,0,0,1-.43-.07,21,21,0,0,1,5-10.44c6.19-6.75,13.91-8.91,22.65-6.69,8.43,2.15,13.52,7.9,15.77,16.23C704.24,502.58,704.34,503,703.41,503Z" transform="translate(-479.55 -464.52)"/><path class="b3b80541-8721-4766-b84c-4b89a2df7f85" d="M787.24,545.26a3.39,3.39,0,0,0-6.76.08,3.74,3.74,0,0,0,1.44,3c1.06,1.25,2.37.65,3.63.51-.83,1.25-1.79,1.41-2.92.41-.58-.52-1.12-.84-1.88-.42.06.15.11.3.18.45a3.35,3.35,0,0,0,4,1.73c1.58-.37,2.29-1.34,2.3-3.14C787.25,547,787.27,546.14,787.24,545.26Zm-3.33,2.58a2.41,2.41,0,0,1-2.27-2.33,2.48,2.48,0,0,1,2.19-2.42,2.52,2.52,0,0,1,2.28,2.35A2.46,2.46,0,0,1,783.91,547.84Z" transform="translate(-479.55 -464.52)"/><path class="b3b80541-8721-4766-b84c-4b89a2df7f85" d="M660.28,545.26a3.39,3.39,0,0,0-6.76.08,3.74,3.74,0,0,0,1.44,3c1.06,1.25,2.37.65,3.63.51-.83,1.25-1.79,1.41-2.92.41-.58-.52-1.12-.84-1.88-.42.06.15.11.3.18.45a3.35,3.35,0,0,0,4,1.73c1.58-.37,2.29-1.34,2.3-3.14C660.29,547,660.31,546.14,660.28,545.26Zm-3.39,2.58a2.41,2.41,0,0,1-2.21-2.39,2.47,2.47,0,0,1,2.25-2.36,2.54,2.54,0,0,1,2.23,2.41A2.45,2.45,0,0,1,656.89,547.84Z" transform="translate(-479.55 -464.52)"/><path class="b3b80541-8721-4766-b84c-4b89a2df7f85" d="M712.52,543.49a3.45,3.45,0,0,0-3.71-1.33,3.39,3.39,0,0,0-2.47,3.3c0,1.6,0,3.2,0,4.8,0,.4,0,.69.56.67s.62-.21.61-.65c0-.6,0-1.2,0-2a10.69,10.69,0,0,0,1,.48,3.4,3.4,0,0,0,3.9-1A3.77,3.77,0,0,0,712.52,543.49ZM709.65,548a2.49,2.49,0,0,1-2.16-2.44,2.52,2.52,0,0,1,2.17-2.44,2.44,2.44,0,0,1,0,4.88Z" transform="translate(-479.55 -464.52)"/><path class="b3b80541-8721-4766-b84c-4b89a2df7f85" d="M731.73,540.73c0-.51-.24-.57-.66-.59s-.53.19-.52.57c0,.64,0,1.28,0,2-.42-.2-.69-.36-1-.47a3.38,3.38,0,0,0-4.51,2.15,3.44,3.44,0,0,0,2.58,4.49,3.33,3.33,0,0,0,4-3.05C731.8,544.17,731.7,542.45,731.73,540.73Zm-3.4,7.24a2.58,2.58,0,0,1-2.28-2.49,2.52,2.52,0,0,1,2.37-2.39,2.56,2.56,0,0,1,2.14,2.49A2.52,2.52,0,0,1,728.32,548Z" transform="translate(-479.55 -464.52)"/><path class="b3b80541-8721-4766-b84c-4b89a2df7f85" d="M723.08,545.94c.72,0,.86-.24.81-.89a3.3,3.3,0,0,0-3.2-3,3.35,3.35,0,0,0-3.56,3,3.47,3.47,0,0,0,2.54,3.82c1.51.41,3.75-.46,4-2.26a1.15,1.15,0,0,0-1.37.3c-1.46,1.66-3.2,1.26-4-1C720,545.92,721.53,545.88,723.08,545.94Zm-2.66-2.82a2.31,2.31,0,0,1,2.31,1.79h-4.32A2.07,2.07,0,0,1,720.42,543.12Z" transform="translate(-479.55 -464.52)"/><path class="b3b80541-8721-4766-b84c-4b89a2df7f85" d="M680.5,545.94c.89,0,1-.33.89-1a3.41,3.41,0,0,0-6.75.19,3.4,3.4,0,0,0,2.8,3.84,3.13,3.13,0,0,0,3.74-2.29c-.95-.13-.95-.13-1.35.31-1.48,1.62-3.24,1.21-4-1C677.47,545.92,679,545.86,680.5,545.94ZM678,543.12a2.25,2.25,0,0,1,2.2,1.8h-4.35A2.25,2.25,0,0,1,678,543.12Z" transform="translate(-479.55 -464.52)"/><path class="b3b80541-8721-4766-b84c-4b89a2df7f85" d="M754.5,545.93c.7.05.88-.19.83-.87a3.31,3.31,0,0,0-3.19-3,3.35,3.35,0,0,0-3.56,2.86,3.43,3.43,0,0,0,2.51,3.94,3.23,3.23,0,0,0,4.06-2.27c-.57-.1-1.06-.21-1.46.41a1.85,1.85,0,0,1-2.17.85,2.23,2.23,0,0,1-1.74-1.95h2.33C752.91,545.92,753.71,545.87,754.5,545.93Zm-2.62-2.82a2.3,2.3,0,0,1,2.27,1.75h-4.34A2.22,2.22,0,0,1,751.88,543.12Z" transform="translate(-479.55 -464.52)"/><path class="b3b80541-8721-4766-b84c-4b89a2df7f85" d="M772.27,545.94c.71,0,.87-.21.82-.88a3.31,3.31,0,0,0-3.19-3,3.35,3.35,0,0,0-3.55,2.86,3.43,3.43,0,0,0,2.52,3.94,3.22,3.22,0,0,0,4-2.23c-.57-.19-1-.22-1.44.38a1.85,1.85,0,0,1-2.18.84,2.21,2.21,0,0,1-1.73-1.94C769.16,545.92,770.72,545.88,772.27,545.94Zm-2.74-2.81c1.14-.12,1.91.57,2.41,1.79h-4.34A2.11,2.11,0,0,1,769.53,543.13Z" transform="translate(-479.55 -464.52)"/><path class="b3b80541-8721-4766-b84c-4b89a2df7f85" d="M794.12,545.93c.73.06.86-.24.81-.89a3.3,3.3,0,0,0-3.2-3,3.35,3.35,0,0,0-3.55,3,3.38,3.38,0,0,0,2.66,3.82,3.15,3.15,0,0,0,3.9-2.26,1.16,1.16,0,0,0-1.38.3c-1.46,1.66-3.2,1.26-4-1h2.36C792.53,545.92,793.33,545.87,794.12,545.93Zm-2.61-2.82a2.31,2.31,0,0,1,2.26,1.81H789.4A2.21,2.21,0,0,1,791.51,543.12Z" transform="translate(-479.55 -464.52)"/><path class="b3b80541-8721-4766-b84c-4b89a2df7f85" d="M664.54,542.08a3.46,3.46,0,1,0,3.42,3.47A3.3,3.3,0,0,0,664.54,542.08Zm.09,5.89a2.45,2.45,0,0,1-.09-4.88,2.53,2.53,0,0,1,2.3,2.33A2.58,2.58,0,0,1,664.63,548Z" transform="translate(-479.55 -464.52)"/></svg>